<svg xmlns:osb="http://www.openswatchbook.org/uri/2009/osb" xmlns:dc="http://purl.org/dc/elements/1.1/" xmlns:cc="http://creativecommons.org/ns#" xmlns:rdf="http://www.w3.org/1999/02/22-rdf-syntax-ns#" xmlns:svg="http://www.w3.org/2000/svg" xmlns="http://www.w3.org/2000/svg" xmlns:xlink="http://www.w3.org/1999/xlink" xmlns:sodipodi="http://sodipodi.sourceforge.net/DTD/sodipodi-0.dtd" xmlns:inkscape="http://www.inkscape.org/namespaces/inkscape" viewBox="0 0 210 297" version="1.1" id="HJl11mm0G" inkscape:version="0.92.3 (2405546, 2018-03-11)" sodipodi:docname="turometer.svg"><style>@-webkit-keyframes r11elkJm7RG_rJoyymQAz_Animation{0%{-webkit-transform: rotate(0deg);transform: rotate(0deg);}63.16%{-webkit-transform: rotate(245deg);transform: rotate(245deg);}68.42%{-webkit-transform: rotate(240deg);transform: rotate(240deg);}73.68%{-webkit-transform: rotate(245deg);transform: rotate(245deg);}78.95%{-webkit-transform: rotate(240deg);transform: rotate(240deg);}84.21%{-webkit-transform: rotate(245deg);transform: rotate(245deg);}89.47%{-webkit-transform: rotate(240deg);transform: rotate(240deg);}94.74%{-webkit-transform: rotate(245deg);transform: rotate(245deg);}100%{-webkit-transform: rotate(245deg);transform: rotate(245deg);}}@keyframes r11elkJm7RG_rJoyymQAz_Animation{0%{-webkit-transform: rotate(0deg);transform: rotate(0deg);}63.16%{-webkit-transform: rotate(245deg);transform: rotate(245deg);}68.42%{-webkit-transform: rotate(240deg);transform: rotate(240deg);}73.68%{-webkit-transform: rotate(245deg);transform: rotate(245deg);}78.95%{-webkit-transform: rotate(240deg);transform: rotate(240deg);}84.21%{-webkit-transform: rotate(245deg);transform: rotate(245deg);}89.47%{-webkit-transform: rotate(240deg);transform: rotate(240deg);}94.74%{-webkit-transform: rotate(245deg);transform: rotate(245deg);}100%{-webkit-transform: rotate(245deg);transform: rotate(245deg);}}#HJl11mm0G *{-webkit-animation-duration: 1.9s;animation-duration: indefinite;-webkit-animation-timing-function: cubic-bezier(0, 0, 1, 1);animation-timing-function: cubic-bezier(0, 0, 1, 1);}#HyMg1JQX0M{opacity: 1;fill: #1a1a1a;fill-opacity: 1;stroke: #000000;stroke-width: 1.35015881;stroke-miterlimit: 4;stroke-dasharray: none;stroke-opacity: 1;}#r1QxyJQQ0M{opacity: 1;fill: none;fill-opacity: 1;stroke: #f90000;stroke-width: 11.1807394;stroke-miterlimit: 4;stroke-dasharray: none;stroke-opacity: 0.50243901;}#By4gkJQQAG{opacity: 1;fill: none;fill-opacity: 1;stroke: #ffffff;stroke-width: 1.45353234;stroke-miterlimit: 4;stroke-dasharray: none;stroke-opacity: 1;}#Hkrxkk7QAf{font-style: normal;font-variant: normal;font-weight: normal;font-stretch: normal;font-size: medium;line-height: 1.25;font-family: 'Script MT Bold';-inkscape-font-specification: 'Script MT Bold, ';letter-spacing: 0px;word-spacing: 0px;fill: #ffffff;fill-opacity: 1;stroke: none;stroke-width: 0.10352349;}#B1IlkkmQCz{font-style: normal;font-variant: normal;font-weight: normal;font-stretch: normal;font-size: medium;line-height: 1.25;font-family: 'Script MT Bold';-inkscape-font-specification: 'Script MT Bold, ';letter-spacing: 0px;word-spacing: 0px;fill: #ffffff;fill-opacity: 1;stroke: none;stroke-width: 0.10352349;}#BJPx1JmX0z{font-style: normal;font-variant: normal;font-weight: normal;font-stretch: normal;font-size: medium;line-height: 1.25;font-family: 'Script MT Bold';-inkscape-font-specification: 'Script MT Bold, ';letter-spacing: 0px;word-spacing: 0px;fill: #ffffff;fill-opacity: 1;stroke: none;stroke-width: 0.10352349;}#BkdxykX70M{font-style: normal;font-variant: normal;font-weight: normal;font-stretch: normal;font-size: medium;line-height: 1.25;font-family: 'Script MT Bold';-inkscape-font-specification: 'Script MT Bold, ';letter-spacing: 0px;word-spacing: 0px;fill: #ffffff;fill-opacity: 1;stroke: none;stroke-width: 0.10352349;}#HJKgkJm7Cf{font-style: normal;font-variant: normal;font-weight: normal;font-stretch: normal;font-size: medium;line-height: 1.25;font-family: 'Script MT Bold';-inkscape-font-specification: 'Script MT Bold, ';letter-spacing: 0px;word-spacing: 0px;fill: #ffffff;fill-opacity: 1;stroke: none;stroke-width: 0.10352349;}#rk5gy1QmCG{font-style: normal;font-variant: normal;font-weight: normal;font-stretch: normal;font-size: medium;line-height: 1.25;font-family: 'Script MT Bold';-inkscape-font-specification: 'Script MT Bold, ';letter-spacing: 0px;word-spacing: 0px;fill: #ffffff;fill-opacity: 1;stroke: none;stroke-width: 0.10352349;}#HksgyyQ70G{font-style: normal;font-variant: normal;font-weight: normal;font-stretch: normal;font-size: medium;line-height: 1.25;font-family: 'Script MT Bold';-inkscape-font-specification: 'Script MT Bold, ';letter-spacing: 0px;word-spacing: 0px;fill: #ffffff;fill-opacity: 1;stroke: none;stroke-width: 0.10352349;}#H13lykXXRf{font-style: normal;font-variant: normal;font-weight: normal;font-stretch: normal;font-size: medium;line-height: 1.25;font-family: 'Script MT Bold';-inkscape-font-specification: 'Script MT Bold, ';letter-spacing: 0px;word-spacing: 0px;fill: #ffffff;fill-opacity: 1;stroke: none;stroke-width: 0.10352349;}#HkpekymXRz{font-style: normal;font-variant: normal;font-weight: normal;font-stretch: normal;font-size: medium;line-height: 1.25;font-family: 'Script MT Bold';-inkscape-font-specification: 'Script MT Bold, ';letter-spacing: 0px;word-spacing: 0px;fill: #ffffff;fill-opacity: 1;stroke: none;stroke-width: 0.10352349;}#B1Rl1yQQCG{opacity: 1;fill: url(#radialGradient1532);fill-opacity: 1;stroke: none;stroke-width: 1.45353234;stroke-miterlimit: 4;stroke-dasharray: none;stroke-opacity: 1;}#r11elkJm7RG{opacity: 1;fill: #d40000;fill-opacity: 1;stroke: none;stroke-width: 1.35015881;stroke-miterlimit: 4;stroke-dasharray: none;stroke-opacity: 1;}#SyexgJ17mRf{fill: black;fill-opacity: 1;stroke: none;font-family: 'Script MT Bold';font-style: normal;font-weight: normal;font-size: 40px;line-height: 1.25;letter-spacing: 0px;word-spacing: 0px;-inkscape-font-specification: 'Script MT Bold, ';font-stretch: normal;font-variant: normal;}#S1Zge117mRM{-inkscape-font-specification: 'Script MT Bold, ';font-family: 'Script MT Bold';font-weight: normal;font-style: normal;font-stretch: normal;font-variant: normal;}#HJzegkk7mAf{-inkscape-font-specification: 'Script MT Bold, ';font-family: 'Script MT Bold';font-weight: normal;font-style: normal;font-stretch: normal;font-variant: normal;}#rkNxgykX7CM{fill: black;fill-opacity: 1;stroke: none;font-family: sans-serif;font-style: normal;font-weight: normal;font-size: 64px;line-height: 1.25;letter-spacing: 0px;word-spacing: 0px;}#SkdleJkQmCG{-webkit-transform:  matrix(0.06670953, 0, 0, 0.06670953, 246.93601, 205.57214);transform:  matrix(0.06670953, 0, 0, 0.06670953, 246.93601, 205.57214);font-style: normal;font-variant: normal;font-weight: normal;font-stretch: normal;font-size: 192px;line-height: 1.25;font-family: 'Tw Cen MT';-inkscape-font-specification: 'Tw Cen MT';letter-spacing: 0px;word-spacing: 0px;fill: #ffffff;fill-opacity: 1;stroke: none;}#r11elkJm7RG_rJoyymQAz{-webkit-animation-name: r11elkJm7RG_rJoyymQAz_Animation;animation-name: r11elkJm7RG_rJoyymQAz_Animation;-webkit-transform-origin: 100% 0%;transform-origin: 100% 0%;transform-box: fill-box;-webkit-transform: rotate(0deg);transform: rotate(0deg);-webkit-animation-timing-function: cubic-bezier(0.42, 0, 1, 1);animation-timing-function: cubic-bezier(0.42, 0, 1, 1);}</style>
  <defs id="defs1192">
    <linearGradient inkscape:collect="always" id="linearGradient1530">
      <stop style="stop-color:#ffffff;stop-opacity:1;" offset="0" id="stop1526"/>
      <stop style="stop-color:#ffffff;stop-opacity:0;" offset="1" id="stop1528"/>
    </linearGradient>
    <inkscape:path-effect effect="skeletal" id="path-effect1447" is_visible="true" pattern="m -1443.4657,-149.34003 v 56.660155 h 5.7657 v -56.660155 z m -73.498,0.26758 v 30.05859 h 5.7637 v -30.05859 z m 23.5195,0 v 30.05859 h 5.7637 v -30.05859 z m 24.3203,0 v 30.05859 h 5.7657 v -30.05859 z m -73.498,0.14062 v 30.06055 h 5.7637 v -30.06055 z m -24.3223,0.12695 v 56.660161 h 5.7657 v -56.660161 z" copytype="repeated_stretched" prop_scale="1" scale_y_rel="false" spacing="0" normal_offset="0" tang_offset="0" prop_units="false" vertical_pattern="false" fuse_tolerance="0"/>
    <inkscape:path-effect effect="skeletal" id="path-effect1405" is_visible="true" pattern="m -126.36102,0 v -56.66114 m 25.65787,56.39387001 V -30.326936 m 24.321529,30.05966601 V -30.326936 m 23.51972,30.05966601 V -30.326936 M -27.20403,-0.40906099 V -30.468726 M -2.8824999,-0.53454001 V -57.19568" copytype="single" prop_scale="1" scale_y_rel="false" spacing="0" normal_offset="0" tang_offset="0" prop_units="false" vertical_pattern="false" fuse_tolerance="0"/>
    <inkscape:path-effect effect="skeletal" id="path-effect3315" is_visible="true" pattern="M 0,0 H 1" copytype="single_stretched" prop_scale="1" scale_y_rel="false" spacing="0" normal_offset="0" tang_offset="0" prop_units="false" vertical_pattern="false" fuse_tolerance="0"/>
    <linearGradient id="linearGradient1863" osb:paint="solid">
      <stop style="stop-color:#000000;stop-opacity:1;" offset="0" id="stop1861"/>
    </linearGradient>
    <inkscape:path-effect fuse_tolerance="0" vertical_pattern="false" prop_units="false" tang_offset="0" normal_offset="0" spacing="0" scale_y_rel="false" prop_scale="1" copytype="single_stretched" pattern="M 0,0 H 1" is_visible="true" id="path-effect1859" effect="skeletal"/>
    <inkscape:path-effect effect="skeletal" id="path-effect1855" is_visible="true" pattern="M 0,0 H 1" copytype="single_stretched" prop_scale="1" scale_y_rel="false" spacing="0" normal_offset="0" tang_offset="0" prop_units="false" vertical_pattern="false" fuse_tolerance="0"/>
    <inkscape:path-effect effect="skeletal" id="path-effect1819" is_visible="false" pattern="M 0,0 H 1" copytype="single_stretched" prop_scale="1" scale_y_rel="false" spacing="0" normal_offset="0" tang_offset="0" prop_units="false" vertical_pattern="false" fuse_tolerance="0"/>
    <inkscape:path-effect effect="skeletal" id="path-effect1795" is_visible="true" pattern="M -1.7825001,-1.7825001 H -78.133691 m 76.3511909,0 v -4.2002603 m -4.2002603,4.2002603 v -2.1001301 m -4.2002606,2.1001301 v -2.1001301 m -4.20026,2.1001301 v -2.1001301 m -4.200261,2.1001301 v -2.1001301 m -4.20026,2.1001301 v -2.1001301 m -4.200261,2.1001301 v -2.1001301 m -4.20026,2.1001301 v -2.1001301 m -4.200261,2.1001301 v -2.1001301 m -4.20026,2.1001301 v -2.1001301 m -4.200261,2.1001301 v -2.1001301 m -4.20026,2.1001301 v -2.1001301 m -4.200261,2.1001301 v -2.1001301 m -4.20026,2.1001301 v -2.1001301 m -4.20026,2.1001301 v -4.2002603 m -4.200261,4.2002603 v -2.1001301 m -4.20026,2.1001301 v -2.1001301 m -4.200261,2.1001301 v -2.1001301 m -4.20026,2.1001301 v -2.1001301 m -0.746503,2.1001301 v -4.2002603" copytype="single_stretched" prop_scale="1" scale_y_rel="false" spacing="0" normal_offset="0" tang_offset="0" prop_units="false" vertical_pattern="false" fuse_tolerance="0"/>
    <inkscape:path-effect effect="skeletal" id="path-effect1763" is_visible="true" pattern="m -236.54225,-13.687511 h 177.0697 m -177.0697,0 v 39.6875 m 37.04167,-39.6875 v 19.84375 m 37.04166,-19.84375 v 19.84375 m 37.04167,-19.84375 v 19.84375 m 37.041667,-19.84375 v 19.84375 m 28.903033,-19.84375 v 39.6875" copytype="repeated_stretched" prop_scale="1" scale_y_rel="false" spacing="0" normal_offset="0" tang_offset="0" prop_units="false" vertical_pattern="false" fuse_tolerance="0"/>
    <inkscape:path-effect effect="ruler" id="path-effect1751" is_visible="true" unit="px" mark_distance="140" mark_length="150" minor_mark_length="75" major_mark_steps="14" shift="0" offset="0" mark_dir="right" border_marks="both"/>
    <radialGradient inkscape:collect="always" xlink:href="#linearGradient1530" id="radialGradient1532" cx="-1099.2294" cy="262.10516" fx="-1099.2294" fy="262.10516" r="31.75" gradientUnits="userSpaceOnUse" gradientTransform="matrix(0.2521305,0,0,0.2521305,388.44829,79.154503)"/>
  </defs>
  <sodipodi:namedview id="Bylek1QQRG" pagecolor="#ffffff" bordercolor="#666666" borderopacity="1.0" inkscape:pageopacity="0.0" inkscape:pageshadow="2" inkscape:zoom="0.70710678" inkscape:cx="350.99562" inkscape:cy="633.82926" inkscape:document-units="mm" inkscape:current-layer="layer1" showgrid="false" showborder="true" inkscape:window-width="1920" inkscape:window-height="1013" inkscape:window-x="-9" inkscape:window-y="29" inkscape:window-maximized="1"/>
  <metadata id="metadata1195">
    <rdf:rdf>
      <cc:work rdf:about="">
        <dc:format>image/svg+xml</dc:format>
        <dc:type rdf:resource="http://purl.org/dc/dcmitype/StillImage"/>
        <dc:title/>
      </cc:work>
    </rdf:rdf>
  </metadata>
  <g inkscape:label="Layer 1" inkscape:groupmode="layer" id="BJWgkJ77Af">
    <path d="m 185.70326,147.21622 a 74.003967,74.003967 0 0 1 -74.004,74.00396 74.003967,74.003967 0 0 1 -74.003905,-74.00396 74.003967,74.003967 0 0 1 74.003905,-74.003967 74.003967,74.003967 0 0 1 74.004,74.003967 z" id="HyMg1JQX0M" inkscape:connector-curvature="0"/>
    <path d="m 167.33796,112.8456 a 65.431179,65.431179 0 0 1 8.9955,30.94671 v 0 a 65.431179,65.431179 0 0 1 -8.5484,34.6299" id="r1QxyJQQ0M" inkscape:connector-curvature="0"/>
    <path d="m 172.33166,179.23291 -12.2779,-7.09114 c -0.2176,0.37387 -0.4395,0.7456 -0.6655,1.11514 l 12.1261,7.3642 c 0.2775,-0.45969 0.55,-0.92245 0.8173,-1.3882 z m 7.4671,-19.0976 -7.2994,-1.6745 c -0.1069,0.46633 -0.2196,0.93126 -0.3381,1.39472 l 7.2538,1.85433 c 0.1341,-0.52294 0.262,-1.04782 0.3837,-1.57455 z m -1.7959,6.34967 -7.0965,-2.39105 c -0.1528,0.45349 -0.3111,0.90522 -0.4747,1.35511 l 7.0397,2.55967 c 0.183,-0.50564 0.3602,-1.01358 0.5315,-1.52373 z m -2.4767,6.33307 -6.8386,-3.08391 c -0.1973,0.43726 -0.3996,0.87239 -0.607,1.30531 l 6.7703,3.241 c 0.2306,-0.48482 0.4557,-0.97232 0.6753,-1.4624 z m 5.482,-19.82342 -7.4691,-0.84071 c -0.053,0.47667 -0.1131,0.95236 -0.1788,1.42695 l 7.4357,1.03278 c 0.077,-0.53816 0.1481,-1.07786 0.2122,-1.61902 z m 0.4171,-6.92201 h -14.2858 c 0.01,0.42291 0.01,0.84561 10e-4,1.268 l 14.2449,0.38398 c 0.02,-0.54952 0.034,-1.10021 0.04,-1.65198 z m -10.0254,34.47894 -12.1261,-7.36421 c -0.2256,0.36868 -0.4553,0.73516 -0.6892,1.09935 l 11.9692,7.6321 c 0.287,-0.45262 0.5691,-0.9084 0.8461,-1.36724 z m -118.706505,1.43941 11.9692,-7.6321 c -0.2344,-0.36503 -0.4646,-0.73235 -0.6907,-1.10188 l -12.1261,7.36421 c 0.2775,0.45969 0.5601,0.91631 0.8476,1.36977 z m -10.853,-34.26266 14.2449,-0.38398 c -0.01,-0.42359 -0.01,-0.8475 0,-1.27162 v -1e-5 h -14.2858 v 1e-5 c 0.01,0.55298 0.02,1.10488 0.04,1.6556 z m 4.0484,20.28048 7.0398,-2.55967 c -0.1637,-0.44989 -0.322,-0.90162 -0.4748,-1.3551 l -7.0964,2.39105 c 0.1712,0.51015 0.3484,1.01808 0.5314,1.52372 z m -1.9437,-6.29885 7.2538,-1.85433 c -0.1184,-0.46346 -0.2312,-0.92839 -0.3381,-1.39472 l -7.2993,1.67451 c 0.1216,0.52672 0.2495,1.0516 0.3836,1.57454 z m -1.3608,-6.71666 7.4272,-1.0769 c -0.069,-0.47455 -0.1312,-0.95021 -0.1876,-1.42689 l -7.4611,0.88542 c 0.067,0.54096 0.1411,1.08045 0.2215,1.61837 z m 6.1178,19.60849 6.7544,-3.27722 c -0.2094,-0.43149 -0.4139,-0.86522 -0.6133,-1.30109 l -6.8235,3.12082 c 0.222,0.48846 0.4495,0.97432 0.6824,1.45749 z m 3.2583,5.94987 12.1261,-7.3642 c -0.2256,-0.36869 -0.447,-0.73956 -0.6641,-1.11256 l -12.2779,7.09114 c 0.2668,0.46488 0.5388,0.92678 0.8159,1.38562 z m -0.9318,-67.63923 12.2779,7.09114 c 0.2175,-0.37387 0.4394,-0.74561 0.6655,-1.11514 l -12.1262,-7.36421 c -0.2775,0.45969 -0.5499,0.92246 -0.8172,1.38821 z m -7.4671,19.09759 7.2993,1.67451 c 0.107,-0.46633 0.2197,-0.93126 0.3381,-1.39472 l -7.2538,-1.85433 c -0.1341,0.52294 -0.262,1.04781 -0.3836,1.57454 z m 1.7959,-6.34967 7.0964,2.39105 c 0.1528,-0.45348 0.3111,-0.90521 0.4748,-1.3551 l -7.0398,-2.55967 c -0.183,0.50564 -0.3602,1.01357 -0.5314,1.52372 z m 2.4767,-6.33306 6.8385,3.08391 c 0.1973,-0.43726 0.3997,-0.87239 0.607,-1.30531 l -6.7703,-3.241 c -0.2305,0.48482 -0.4556,0.97232 -0.6752,1.4624 z m -5.482,19.82341 7.469,0.84072 c 0.053,-0.47668 0.1131,-0.95236 0.1788,-1.42695 l -7.4357,-1.03278 c -0.077,0.53816 -0.148,1.07786 -0.2121,1.61901 z m -0.4171,6.92202 h 14.2858 c -0.01,-0.42291 -0.01,-0.84561 0,-1.268 l -14.2449,-0.38398 c -0.02,0.54952 -0.034,1.10021 -0.04,1.65198 m 33.8269,-58.986697 7.6321,11.96915 c 0.365,-0.23434 0.7323,-0.46458 1.1019,-0.69062 l -7.3642,-12.12613 c -0.4597,0.27751 -0.9164,0.56007 -1.3698,0.8476 z m -15.5672,13.278727 5.6198,5.0474 c 0.3228,-0.35941 0.6494,-0.71544 0.9798,-1.06801 l -5.5127,-5.165657 c -0.3665,0.39153 -0.7289,0.78698 -1.0869,1.186267 z m 4.5912,-4.690557 5.1657,5.512707 c 0.3525,-0.33039 0.7086,-0.65705 1.068,-0.97989 l -5.0474,-5.619767 c -0.3993,0.35807 -0.7948,0.72041 -1.1863,1.08695 z m 5.1591,-4.4093 4.648,5.9458 c 0.3803,-0.29741 0.7638,-0.5907 1.1502,-0.87979 l -4.5181,-6.0413 c -0.4302,0.32047 -0.8569,0.6456 -1.2801,0.97529 z m -14.2416,14.673387 6.0634,4.48791 c 0.2869,-0.38749 0.578,-0.77201 0.8733,-1.15345 l -5.9686,-4.61841 c -0.3273,0.42448 -0.65,0.8525 -0.9681,1.28395 z m -3.743,5.6555 12.1261,7.36421 c 0.2256,-0.36868 0.4553,-0.73516 0.6891,-1.09935 l -11.9691,-7.6321 c -0.287,0.45262 -0.5691,0.9084 -0.8461,1.36724 z m 58.064205,-35.360767 0.3839,14.24487 c 0.4236,-0.006 0.8475,-0.006 1.2716,5e-4 v 1e-5 -14.28573 0 c -0.5529,0.006 -1.1048,0.0199 -1.6555,0.0403 z m -20.280505,4.04839 2.5596,7.03976 c 0.4499,-0.16364 0.9017,-0.32191 1.3551,-0.47475 l -2.391,-7.09644 c -0.5102,0.17127 -1.0181,0.34844 -1.5237,0.53143 z m 6.2988,-1.94371 1.8544,7.25385 c 0.4634,-0.11845 0.9283,-0.23119 1.3947,-0.33812 l -1.6745,-7.29934 c -0.5268,0.12164 -1.0516,0.24954 -1.5746,0.38361 z m 6.716705,-1.36075 1.0769,7.42715 c 0.4745,-0.0687 0.9502,-0.13123 1.4269,-0.18761 l -0.8855,-7.46107 c -0.5409,0.0672 -1.0804,0.1411 -1.6183,0.22153 z m -19.608505,6.11772 3.2772,6.7545 c 0.4315,-0.20946 0.8652,-0.41396 1.3011,-0.61341 l -3.1208,-6.82341 c -0.4885,0.22197 -0.9743,0.44943 -1.4575,0.68232 z m -5.9499,3.25829 7.3642,12.12613 c 0.3687,-0.22557 0.7396,-0.44694 1.1126,-0.66405 l -7.0912,-12.27792 c -0.4648,0.26684 -0.9268,0.53882 -1.3856,0.81584 z m 67.639305,-0.9318 -7.0912,12.27792 c 0.3739,0.21758 0.7456,0.43944 1.1151,0.66548 l 7.3643,-12.12612 c -0.4597,-0.27751 -0.9225,-0.54996 -1.3882,-0.81728 z m -19.0977,-7.46706 -1.6745,7.29934 c 0.4664,0.10693 0.9313,0.21966 1.3948,0.33811 l 1.8543,-7.25384 c -0.5229,-0.13408 -1.0478,-0.26197 -1.5746,-0.38361 z m 6.3497,1.79588 -2.391,7.09645 c 0.4535,0.15283 0.9052,0.31111 1.3551,0.47474 l 2.5597,-7.03975 c -0.5057,-0.18299 -1.0136,-0.36017 -1.5238,-0.53144 z m 6.3331,2.47671 -3.0839,6.83857 c 0.4372,0.19727 0.8724,0.39962 1.3053,0.60696 l 3.241,-6.77027 c -0.4848,-0.23056 -0.9723,-0.45568 -1.4624,-0.67526 z m -19.8234,-5.48199 -0.8407,7.46902 c 0.4766,0.0534 0.9523,0.11309 1.4269,0.17884 l 1.0328,-7.43575 c -0.5382,-0.0773 -1.0779,-0.14803 -1.619,-0.21211 z m -6.9221,-0.4171 v 14.28576 c 0.423,-0.006 0.8457,-0.007 1.2681,-10e-4 l 0.3839,-14.24487 c -0.5495,-0.0203 -1.1002,-0.0336 -1.6519,-0.04 m 58.9867,33.826887 -11.9692,7.63209 c 0.2343,0.36503 0.4646,0.73235 0.6906,1.10188 l 12.1262,-7.3642 c -0.2776,-0.45969 -0.5601,-0.91631 -0.8476,-1.36977 z m -13.2788,-15.567217 -5.0474,5.619767 c 0.3594,0.32284 0.7155,0.6495 1.068,0.97989 l 5.1657,-5.512707 c -0.3915,-0.36654 -0.787,-0.72889 -1.1863,-1.08695 z m 4.6906,4.59124 -5.5127,5.165657 c 0.3304,0.35256 0.657,0.7086 0.9799,1.06801 l 5.6197,-5.0474 c -0.358,-0.399277 -0.7204,-0.794737 -1.0869,-1.186267 z m 4.4093,5.159067 -5.9458,4.648 c 0.2974,0.38036 0.5907,0.7638 0.8798,1.15026 l 6.0413,-4.51811 c -0.3205,-0.43021 -0.6456,-0.85695 -0.9753,-1.28015 z m -14.6734,-14.241587 -4.4879,6.06343 c 0.3875,0.28689 0.772,0.578 1.1534,0.87324 l 4.6184,-5.96859 c -0.4244,-0.32731 -0.8524,-0.65003 -1.2839,-0.96808 z m -5.6555,-3.74301 -7.3642,12.12612 c 0.3687,0.22556 0.7351,0.45531 1.0993,0.68915 l 7.6321,-11.96915 c -0.4526,-0.28703 -0.9084,-0.5691 -1.3672,-0.84612 z m 35.3608,58.064167 -14.2449,0.38398 c 0.01,0.42359 0.01,0.84749 -5e-4,1.27162 h 14.2858 c -0.01,-0.55298 -0.02,-1.10488 -0.04,-1.6556 z m -4.0484,-20.28049 -7.0398,2.55967 c 0.1637,0.44989 0.3219,0.90162 0.4748,1.35511 l 7.0964,-2.39105 c -0.1713,-0.51015 -0.3484,-1.01809 -0.5314,-1.52373 z m 1.9437,6.29886 -7.2539,1.85433 c 0.1185,0.46345 0.2312,0.92838 0.3382,1.39471 l 7.2993,-1.6745 c -0.1216,-0.52673 -0.2495,-1.05161 -0.3836,-1.57454 z m 1.3607,6.71666 -7.4271,1.0769 c 0.069,0.47455 0.1312,0.9502 0.1876,1.42689 l 7.4611,-0.88542 c -0.067,-0.54097 -0.1411,-1.08045 -0.2216,-1.61837 z m -6.1177,-19.60849 -6.7545,3.27722 c 0.2095,0.43149 0.414,0.86521 0.6134,1.30108 l 6.8234,-3.12081 c -0.2219,-0.48846 -0.4494,-0.97432 -0.6823,-1.45749 z m -3.2583,-5.94988 -12.1261,7.36421 c 0.2256,0.36868 0.4469,0.73956 0.664,1.11255 l 12.278,-7.09113 c -0.2669,-0.46488 -0.5389,-0.92679 -0.8159,-1.38563 z" id="By4gkJQQAG" inkscape:connector-curvature="0" sodipodi:nodetypes="cccccccccccccccccccccccccccccccccccccccccccccccccccccccccccccccccccccccccccccccccccccccccccccccccccccccccccccccccccccccccccccccccccccccccccccccccccccccccccccccccccccccccccccccccccccccccccccccccccccccccccccccccccccccccccccccccccccccccccccccccccccccccccccccccc"/>
    <path inkscape:connector-curvature="0" id="Hkrxkk7QAf" d="m 72.774055,163.6969 q -1.5432,1.29081 -2.1837,2.42633 -0.2427,0.39792 -0.3397,0.39792 -0.1942,0 -0.3591,-0.10676 -0.1553,-0.11646 -0.1553,-0.25234 0,-0.16499 0.5046,-0.89289 0.5047,-0.7376 1.6888,-1.84401 1.1937,-1.10641 1.7663,-1.37816 0.5727,-0.27175 1.485,-0.27175 0.4755,0 0.4755,0.24264 0,0.0194 -0.019,0.29116 v 0.0194 l -0.8249,3.2707 -1.0579,4.05682 q -0.6115,2.31958 -1.1161,3.96948 -0.495,1.6402 -0.6891,1.8149 -0.1844,0.1747 -0.8347,0.28145 -0.6502,0.10676 -1.4752,0.10676 -0.5047,0 -0.5047,-0.24263 0,-0.22322 0.165,-0.61144 1.5723,-4.26063 3.4746,-11.27758 z"/>
    <path inkscape:connector-curvature="0" id="B1IlkkmQCz" d="m 61.262055,150.19631 q 1.0967,-0.33969 2.1254,-0.33969 0.1942,0 1.3782,0.10676 1.1937,0.097 1.417,0.097 0.5532,0 0.9026,-0.1941 0.3591,-0.20382 0.5726,-0.78613 0.068,-0.19411 0.1358,-0.19411 0.1747,0 0.3786,0.097 0.2038,0.0874 0.2038,0.14558 0,0.32028 -0.5241,1.41698 -0.5144,1.087 -1.0579,1.4558 -0.5435,0.3688 -1.6402,0.3688 -0.2426,0 -1.7081,-0.12617 -1.4558,-0.11646 -1.7276,-0.11646 -0.9511,0 -1.4072,0.11646 -0.4562,0.12617 -0.5047,0.12617 -0.1359,0 -0.1359,-0.1844 0,-0.58232 0.2135,-1.14523 0.2232,-0.56291 0.9802,-1.48491 0.7668,-0.93172 2.2614,-2.31958 l 1.0967,-1.00935 q 1.3005,-1.22287 1.8246,-2.33898 0.5338,-1.12582 0.5338,-2.29046 0,-0.98995 -0.5144,-1.59168 -0.5047,-0.60173 -1.3296,-0.60173 -0.7862,0 -1.3685,0.57262 -0.5823,0.56291 -0.5823,1.33933 0,0.65026 0.6406,1.15494 0.3397,0.25234 0.3397,0.45615 0,0.27175 -0.7376,0.63085 -0.7377,0.35909 -1.1938,0.35909 -0.3688,0 -0.6406,-0.34939 -0.2717,-0.3591 -0.2717,-0.86377 0,-1.6208 1.5528,-2.98925 1.5626,-1.37815 3.4357,-1.37815 1.5432,0 2.5331,0.94142 0.9997,0.93171 0.9997,2.3778 0,1.16464 -0.66,2.15458 -0.6503,0.98995 -1.5625,1.73726 -0.9124,0.7376 -2.407,1.75666 -1.4946,1.00935 -2.2904,1.6305 -0.7862,0.61143 -1.2617,1.26169 z"/>
    <path inkscape:connector-curvature="0" id="BJPx1JmX0z" d="m 76.528855,117.0761 q 0,2.41662 -3.4648,3.45509 2.7272,0.97054 2.7272,3.35804 0,1.83431 -1.5432,3.03777 -1.5431,1.20346 -3.9209,1.20346 -1.7761,0 -2.7272,-0.7376 -0.9511,-0.73761 -0.9511,-2.08665 0,-0.48526 0.2426,-0.71819 0.2523,-0.24263 0.9996,-0.48527 0.7474,-0.25234 0.9609,-0.25234 0.1358,0 0.2232,0.13588 0.097,0.12617 0.097,0.30086 0,0.14558 -0.2038,0.60173 -0.1941,0.45615 -0.1941,0.91231 0,0.65996 0.5047,1.12581 0.5144,0.46586 1.2423,0.46586 1.1549,0 1.8246,-1.11611 0.6794,-1.12582 0.6794,-2.5428 0,-1.01906 -0.4562,-1.68873 -0.4561,-0.67937 -1.1549,-0.64055 l -0.6891,0.0388 q -0.3397,0.0291 -0.3397,-0.39792 0,-0.49497 0.1359,-0.64055 0.1456,-0.14558 0.4561,-0.14558 0.8056,0 1.2811,-0.11646 0.4853,-0.12617 0.8929,-0.59203 0.4173,-0.47556 0.66,-1.19375 0.2523,-0.71819 0.2523,-1.41698 0,-0.87348 -0.5338,-1.42668 -0.5337,-0.56291 -1.3587,-0.56291 -0.757,0 -1.3102,0.45615 -0.5532,0.45615 -0.5532,1.06759 0,0.23292 0.1455,0.56291 0.1456,0.32998 0.1456,0.51438 0,0.25233 -0.6793,0.61143 -0.6794,0.3591 -0.9706,0.3591 -0.2232,0 -0.3882,-0.27175 -0.165,-0.27175 -0.165,-0.65996 0,-1.23258 1.2908,-2.3681 1.3005,-1.14523 3.261,-1.14523 1.5917,0 2.5816,0.83466 0.9997,0.83466 0.9997,2.16429 z"/>
    <path inkscape:connector-curvature="0" id="BkdxykX70M" d="m 90.211855,106.19878 q 1.1453,-0.0485 1.8926,-0.22322 l 0.1553,-0.0388 q 0.3008,0 0.3008,0.20381 0,0.14558 -0.2135,0.84437 -0.2135,0.68907 -0.3397,0.76672 -0.1164,0.0776 -0.6114,0.12617 -0.495,0.0485 -1.6402,0.0485 l -0.5144,1.86342 q -0.2135,0.79584 -0.3882,1.23258 -0.1747,0.43674 -0.3979,0.56291 -0.2233,0.12617 -0.8832,0.22322 -0.6503,0.097 -1.4073,0.097 -0.4561,0 -0.4561,-0.24263 0,-0.20381 0.1358,-0.57261 l 1.1744,-3.18335 -3.426,-0.11646 q -0.4659,-0.0194 -0.5823,-0.0582 -0.1068,-0.0388 -0.1068,-0.20382 0,-0.62114 0.2038,-1.03847 0.4659,-0.98023 1.3976,-2.32927 1.3587,-1.95077 3.1639,-3.77538 1.8149,-1.824597 2.6302,-2.261337 0.5047,-0.27175 1.3878,-0.27175 0.5532,0 0.5532,0.29116 0,0.12617 -0.4561,2.047827 l -0.2912,1.25199 q -0.2426,1.01905 -1.019,3.81419 z m -0.7279,-6.463737 q -0.9414,0.650247 -2.6301,2.630137 -1.679,1.97018 -2.8825,4.06653 2.2614,0.0291 3.5036,-0.0388 0.825,-2.41663 2.009,-6.657847 z"/>
    <path inkscape:connector-curvature="0" id="HJKgkJm7Cf" d="m 114.63366,92.633923 q -0.2814,1.18405 -0.7182,1.75666 -0.427,0.57262 -0.9899,0.73761 -0.5532,0.16499 -1.4752,0.16499 -0.9414,0 -2.2225,-0.15529 l -0.8153,2.99895 q 0.8638,-0.22322 1.6111,-0.22322 1.7372,0 2.8922,1.12582 1.1646,1.125807 1.1646,2.814537 0,2.03812 -1.5334,3.42598 -1.5335,1.38786 -3.7948,1.38786 -1.7373,0 -2.7466,-0.83465 -1.0094,-0.83466 -1.0094,-1.8149 0,-0.31057 0.087,-0.49497 0.087,-0.19411 0.3494,-0.32998 0.2717,-0.14558 0.854,-0.39792 0.5824,-0.26205 0.7959,-0.26205 0.2329,0 0.2329,0.23293 0,0.097 -0.1067,0.67938 -0.1068,0.58232 -0.1068,0.68907 0,0.77643 0.4658,1.29081 0.4756,0.50468 1.2035,0.50468 1.0385,0 1.7761,-1.19376 0.7473,-1.20346 0.7473,-2.94071 0,-1.22287 -0.6697,-1.911947 -0.6599,-0.69878 -1.8343,-0.69878 -0.5338,0 -0.8249,0.0776 -0.2912,0.0679 -0.3883,0.0679 -0.1747,0 -0.1747,-0.18441 0,-0.0679 0.1165,-0.49497 l 1.514,-5.44469 q 0.1553,-0.57261 0.4756,-0.57261 0.068,0 0.33,0.0582 0.9317,0.21352 2.0478,0.21352 1.2908,0 2.7466,-0.27175 z"/>
    <path inkscape:connector-curvature="0" id="rk5gy1QmCG" d="m 135.87506,106.13008 q 1.0191,0 1.7858,0.94142 0.7764,0.93171 0.7764,2.20311 0,2.06723 -1.6499,3.69773 -1.6499,1.63049 -3.7559,1.63049 -1.6111,0 -2.6108,-1.23257 -0.9996,-1.23258 -0.9996,-3.24158 0,-2.56221 1.2811,-4.75561 1.2908,-2.19341 3.1833,-3.49392 1.8926,-1.31022 2.8049,-1.31022 0.019,0 0.2523,0.14558 0.2426,0.13588 0.2426,0.23293 0,0.0874 -0.2329,0.23293 -1.6014,0.89289 -2.7757,2.84366 -1.1647,1.94106 -1.747,4.32858 -0.5823,2.3875 -0.5823,3.58126 0,0.87348 0.3785,1.41698 0.3882,0.53379 0.99,0.53379 1.0676,0 1.776,-1.68873 0.7085,-1.69843 0.7085,-3.14452 0,-0.65026 -0.3397,-1.12582 -0.3396,-0.48527 -0.757,-0.48527 -0.2523,0 -0.5046,0.0971 -0.2427,0.0873 -0.2912,0.0873 -0.068,0 -0.1456,-0.0873 -0.068,-0.0873 -0.068,-0.19411 0,-0.10676 0.7958,-0.65996 0.8055,-0.55321 1.4849,-0.55321 z"/>
    <path inkscape:connector-curvature="0" id="HksgyyQ70G" d="m 149.48056,118.73626 q -0.2524,0.11646 -0.4756,0.11646 -0.2135,0 -0.2135,-0.23293 0,-0.12617 0.1359,-0.58232 l 0.5532,-1.80519 q 0.1359,-0.40762 0.2912,-0.68908 0.1649,-0.29115 0.3687,-0.39791 0.2038,-0.10676 0.8056,-0.19411 0.6114,-0.0874 1.2034,-0.0874 0.66,0 1.7276,0.1844 1.0773,0.1747 1.6693,0.1747 0.8347,0 1.2229,-0.1747 0.3882,-0.1844 0.4464,-0.1844 0.068,0 0.1359,0.0776 0.078,0.0777 0.078,0.15529 0,0.49497 -1.4072,3.22217 -1.2423,2.41662 -2.2517,4.9303 -0.9996,2.50398 -1.349,3.75596 -0.3494,1.24229 -0.5338,1.4558 -0.1844,0.20382 -0.9123,0.32998 -0.7182,0.12618 -1.5334,0.12618 -0.4562,0 -0.4562,-0.32028 0,-0.47556 0.7376,-2.30016 0.7473,-1.83431 3.6201,-5.39616 1.6887,-2.12547 2.3196,-3.4551 -0.5532,0.0776 -0.9706,0.0776 -0.2426,0 -1.679,-0.13587 -1.4267,-0.14558 -1.6984,-0.14558 -0.8347,0 -1.2229,0.34939 -0.3882,0.34939 -0.6114,1.14523 z"/>
    <path inkscape:connector-curvature="0" id="H13lykXXRf" d="m 164.12766,142.06705 h 0.592 q 0.1164,0 0.1164,0.13588 0,0.13587 -0.1164,0.51438 -0.1553,0.0776 -0.4368,0.0776 -0.359,0 -0.5337,-0.0582 -0.6503,1.19376 -2.3487,2.3681 1.8052,1.93136 1.8052,3.60068 0,1.75666 -1.4267,3.13482 -1.417,1.37815 -3.261,1.37815 -1.4655,0 -2.4166,-0.80554 -0.9414,-0.81525 -0.9414,-2.05753 0,-1.12582 0.757,-2.14487 0.7667,-1.02877 2.601,-2.174 -1.2908,-1.4655 -1.2908,-2.97953 0,-1.4558 0.9899,-2.53309 0.9997,-1.0773 2.7467,-1.37816 0.4173,0.30086 0.4173,0.32998 0,0.11647 -0.3203,0.24263 -0.757,0.3591 -1.1841,0.95113 -0.427,0.59202 -0.427,1.27139 0,0.65026 0.3397,1.21317 0.3494,0.56291 1.0773,1.37816 1.5334,-0.89289 2.2225,-2.15459 -0.7376,-0.51438 -0.7376,-1.44609 0,-0.71819 0.3882,-1.24228 0.3979,-0.52409 0.9317,-0.52409 0.3882,0 0.6212,0.32028 0.2329,0.32027 0.2329,0.87348 0,0.85406 -0.3979,1.70813 z m -3.1446,8.08454 q 0,-0.86377 -0.4755,-1.69843 -0.4659,-0.84436 -1.4752,-1.85372 -3.1154,1.79549 -3.1154,3.71714 0,0.92201 0.7182,1.54315 0.7279,0.62114 1.8246,0.62114 1.0967,0 1.8051,-0.65996 0.7182,-0.65997 0.7182,-1.66932 z"/>
    <path inkscape:connector-curvature="0" id="HkpekymXRz" d="m 152.46006,164.61008 q 1.6208,0 2.6204,1.23258 0.9997,1.22287 0.9997,3.23187 0,2.57191 -1.2908,4.76532 -1.2811,2.1837 -3.1737,3.49391 -1.8925,1.31022 -2.8048,1.31022 -0.019,0 -0.262,-0.14558 -0.2427,-0.14558 -0.2427,-0.23293 0,-0.097 0.2427,-0.24263 1.6013,-0.89289 2.766,-2.83395 1.1743,-1.95077 1.7566,-4.33828 0.5824,-2.38752 0.5824,-3.58127 0,-0.86377 -0.3882,-1.40727 -0.3786,-0.5435 -0.9803,-0.5435 -1.0676,0 -1.7761,1.69843 -0.7084,1.69843 -0.7084,3.13482 0,0.65026 0.3396,1.13552 0.3397,0.47557 0.757,0.47557 0.2524,0 0.495,-0.0874 0.2524,-0.0971 0.3009,-0.0971 0.068,0 0.1359,0.0971 0.078,0.0874 0.078,0.1844 0,0.10676 -0.8055,0.65996 -0.7959,0.5532 -1.4752,0.5532 -1.0191,0 -1.7955,-0.93171 -0.7765,-0.94141 -0.7765,-2.20311 0,-2.07694 1.65,-3.69773 1.6596,-1.63049 3.7559,-1.63049 z"/>
    <path d="m 119.30416,145.2392 a 8.0051435,8.0051435 0 0 1 -8.0051,8.00515 8.0051435,8.0051435 0 0 1 -8.0052,-8.00515 8.0051435,8.0051435 0 0 1 8.0052,-8.00514 8.0051435,8.0051435 0 0 1 8.0051,8.00514 z" id="B1Rl1yQQCG" inkscape:connector-curvature="0"/>
    <g id="r11elkJm7RG_rJoyymQAz" data-animator-group="true" data-animator-type="1"><path d="m 53.782955,179.39176 -1.3172,-2.22857 1.3172,2.22857 56.243205,-36.25017 v 0 l 2.675,4.5257 v 0 z" id="r11elkJm7RG" inkscape:connector-curvature="0" sodipodi:nodetypes="cccccccc" inkscape:transform-center-y="15.824024" inkscape:transform-center-x="28.715565"/></g>
    <flowroot xml:space="preserve" id="SyexgJ17mRf"><flowregion id="S1Zge117mRM"><rect id="HJzegkk7mAf" width="1599.8291" height="366.81165" x="-6898.7104" y="-220.9832"/></flowregion><flowpara id="r1QegykQm0f"/></flowroot>    <flowroot xml:space="preserve" id="rkNxgykX7CM"><flowregion id="HJBgg1JX7RM"><rect id="r1LgeyJmQAM" width="1533.0074" height="995.60632" x="-1697.0563" y="-353.91928"/></flowregion><flowpara id="rJwge1y7XCG"/></flowroot>    <g aria-label="Rpm x 1000" id="SkdleJkQmCG">
      <path d="m -2502.3008,-281.66672 h 25.875 q 19.3125,0 31.4063,9.65625 12.1875,9.5625 12.1875,24.5625 0,12 -7.875,21.1875 -7.875,9.1875 -24.5625,12.9375 l 34.7812,51.09375 h -18.6562 l -33.1875,-49.125 h -3.6563 v 49.125 h -16.3125 z m 16.3125,14.4375 v 41.625 q 36.0938,0.75 36.0938,-20.90625 0,-7.59375 -4.2188,-12.375 -4.2187,-4.875 -11.25,-6.5625 -7.0312,-1.78125 -20.625,-1.78125 z" id="H1tlg1JQXCG" inkscape:connector-curvature="0"/>
      <path d="m -2392.1445,-239.57297 v 15.5625 0 q 11.7187,-17.71875 30,-17.71875 15,0 25.7812,12 10.875,11.90625 10.875,28.5 0,16.78125 -10.9687,28.96875 -10.9688,12.1875 -25.875,12.1875 -8.625,0 -16.5938,-4.5 -7.875,-4.5 -13.0312,-13.03125 v 0 51.65625 h -16.3125 v -113.625 z m 49.5937,38.34375 q 0,-10.21875 -7.6875,-17.8125 -7.6875,-7.6875 -18.0937,-7.6875 -10.5938,0 -18.375,7.59375 -7.6875,7.59375 -7.6875,17.90625 0,10.59375 7.5937,18.375 7.6875,7.78125 18.0938,7.78125 10.7812,0 18.4687,-7.6875 7.6875,-7.6875 7.6875,-18.46875 z" id="BJ5eekymQCz" inkscape:connector-curvature="0"/>
      <path d="m -2305.8008,-162.22922 v -77.34375 h 16.125 v 11.90625 q 5.7188,-7.3125 10.875,-10.6875 5.25,-3.375 12,-3.375 8.8125,0 13.7813,3.84375 5.0625,3.84375 8.5312,12.28125 6.0938,-8.4375 11.7188,-12.28125 5.7187,-3.84375 13.2187,-3.84375 9.1875,0 15.8438,6.9375 6.6562,6.84375 6.6562,16.3125 v 56.25 h -16.2187 v -52.03125 q 0,-12.84375 -12.6563,-12.84375 -7.2187,0 -12.2812,6.5625 -4.9688,6.5625 -4.9688,16.21875 v 42.09375 h -16.3125 v -49.875 q 0,-15.1875 -12.4687,-15.1875 -7.4063,0 -12.5625,6.1875 -5.1563,6.1875 -5.1563,15.28125 v 43.59375 z" id="HJoxeyyQX0f" inkscape:connector-curvature="0"/>
      <path d="m -2123.082,-239.57297 h 19.7812 l 17.25,22.03125 16.875,-22.03125 h 19.5938 l -26.9063,34.875 32.5313,42.46875 h -19.4063 l -22.875,-29.53125 -23.0625,29.53125 h -19.2187 l 32.7187,-42.46875 z" id="Sy3exyJQXAM" inkscape:connector-curvature="0"/>
      <path d="m -1954.8008,-281.29172 h 31.0313 v 119.0625 h -16.125 v -103.3125 h -20.3438 z" id="Bkaegy17m0z" inkscape:connector-curvature="0"/>
      <path d="m -1825.5195,-285.69797 q 19.6875,0 31.9687,17.71875 12.375,17.625 12.375,45.84375 0,29.25 -13.3125,46.59375 -13.2187,17.34375 -31.7812,17.34375 -19.3125,0 -32.1563,-17.71875 -12.75,-17.8125 -12.75,-45.28125 0,-30.46875 13.125,-47.4375 13.2188,-17.0625 31.5938,-17.0625 z m 27.2812,63.375 q 0,-20.25 -7.9687,-33.28125 -7.9688,-13.03125 -20.0625,-13.03125 -12.4688,0 -20.3438,12.9375 -7.875,12.84375 -7.875,33.9375 0,20.90625 7.9688,33.65625 7.9687,12.65625 20.625,12.65625 12.1875,0 19.875,-12.9375 7.7812,-13.03125 7.7812,-33.9375 z" id="Sk0ee117mRf" inkscape:connector-curvature="0"/>
      <path d="m -1719.3945,-285.69797 q 19.6875,0 31.9687,17.71875 12.375,17.625 12.375,45.84375 0,29.25 -13.3125,46.59375 -13.2187,17.34375 -31.7812,17.34375 -19.3125,0 -32.1563,-17.71875 -12.75,-17.8125 -12.75,-45.28125 0,-30.46875 13.125,-47.4375 13.2188,-17.0625 31.5938,-17.0625 z m 27.2812,63.375 q 0,-20.25 -7.9687,-33.28125 -7.9688,-13.03125 -20.0625,-13.03125 -12.4688,0 -20.3438,12.9375 -7.875,12.84375 -7.875,33.9375 0,20.90625 7.9688,33.65625 7.9687,12.65625 20.625,12.65625 12.1875,0 19.875,-12.9375 7.7812,-13.03125 7.7812,-33.9375 z" id="ByJZlJk7XRf" inkscape:connector-curvature="0"/>
      <path d="m -1613.2695,-285.69797 q 19.6875,0 31.9687,17.71875 12.375,17.625 12.375,45.84375 0,29.25 -13.3125,46.59375 -13.2187,17.34375 -31.7812,17.34375 -19.3125,0 -32.1563,-17.71875 -12.75,-17.8125 -12.75,-45.28125 0,-30.46875 13.125,-47.4375 13.2188,-17.0625 31.5938,-17.0625 z m 27.2812,63.375 q 0,-20.25 -7.9687,-33.28125 -7.9688,-13.03125 -20.0625,-13.03125 -12.4688,0 -20.3438,12.9375 -7.875,12.84375 -7.875,33.9375 0,20.90625 7.9688,33.65625 7.9687,12.65625 20.625,12.65625 12.1875,0 19.875,-12.9375 7.7812,-13.03125 7.7812,-33.9375 z" id="HklWgkkmX0f" inkscape:connector-curvature="0"/>
    </g>
  </g>
<script>(function(){var a=document.querySelector('#HJl11mm0G'),b=a.querySelectorAll('style'),c=function(d){b.forEach(function(f){var g=f.textContent;g&amp;&amp;(f.textContent=g.replace(/transform-box:[^;\r\n]*/gi,'transform-box: '+d))})};c('initial'),window.requestAnimationFrame(function(){return c('fill-box')})})();</script></svg>
